<?xml version="1.0" standalone="no"?>
<!DOCTYPE svg PUBLIC "-//W3C//DTD SVG 20010904//EN"
 "http://www.w3.org/TR/2001/REC-SVG-20010904/DTD/svg10.dtd">
<svg version="1.0" xmlns="http://www.w3.org/2000/svg"
 width="89.000000pt" height="86.000000pt" viewBox="0 0 89.000000 86.000000"
 preserveAspectRatio="xMidYMid meet">

<g transform="translate(0.000000,86.000000) scale(0.100000,-0.100000)"
fill="#000000" stroke="none">
<path d="M0 430 l0 -430 445 0 445 0 0 430 0 430 -445 0 -445 0 0 -430z m348
384 c-27 -8 -48 -19 -48 -23 0 -10 -115 -91 -129 -91 -5 0 -28 -28 -50 -61
-23 -34 -41 -57 -41 -53 0 29 124 180 165 202 39 20 104 41 130 41 11 0 -1 -7
-27 -15z m276 -20 c48 -24 116 -80 116 -95 0 -4 18 -34 41 -67 40 -58 75 -164
62 -186 -4 -5 -7 -23 -7 -40 -1 -16 -7 -31 -14 -33 -9 -4 -12 11 -10 59 2 34
6 65 9 68 4 3 -5 31 -20 63 -14 33 -29 56 -32 52 -4 -3 -10 -1 -15 6 -4 8 -3
10 4 5 7 -4 12 -3 12 3 0 10 -19 26 -32 26 -3 0 -17 13 -29 30 -13 16 -18 26
-12 22 6 -4 14 -3 17 2 7 11 -33 41 -108 82 -64 36 -52 38 18 3z m-44 -97 c54
-27 71 -42 106 -94 45 -68 70 -158 58 -218 -7 -37 -28 -43 -30 -9 -5 103 -33
172 -90 230 -46 45 -124 81 -136 62 -6 -10 -8 -10 -8 0 0 8 -16 12 -46 12 -26
0 -43 -4 -39 -9 3 -6 -7 -9 -22 -8 -19 1 -27 -2 -25 -11 2 -9 -4 -12 -16 -8
-19 6 -79 -31 -68 -42 3 -2 -3 -17 -13 -31 -24 -33 -51 -113 -52 -154 -1 -29
-2 -30 -8 -7 -3 14 -13 25 -21 25 -10 0 -15 11 -15 35 -2 111 100 223 230 253
77 18 115 13 195 -26z m-137 -34 c-7 -2 -19 -2 -25 0 -7 3 -2 5 12 5 14 0 19
-2 13 -5z m118 -39 c62 -31 110 -115 108 -191 l-1 -48 -8 40 c-19 93 -59 154
-122 186 -53 27 -133 27 -184 0 -68 -36 -123 -98 -109 -121 3 -5 1 -19 -5 -30
-16 -30 13 -121 52 -166 31 -35 117 -84 147 -84 10 0 12 -3 5 -10 -14 -14
-100 21 -145 59 -119 99 -101 300 31 358 71 32 176 35 231 7z m-488 -152 c-7
-135 25 -235 106 -327 16 -18 9 -14 -17 10 -66 61 -105 149 -110 248 -3 68 10
167 22 167 2 0 1 -44 -1 -98z m213 -41 c-12 -19 -24 -12 -19 10 4 13 9 17 15
11 6 -6 7 -15 4 -21z m75 8 c9 -17 8 -20 -3 -17 -7 3 -21 1 -30 -4 -21 -10
-25 11 -6 30 17 17 26 15 39 -9z m87 4 c-4 -22 -58 -31 -58 -10 0 20 10 27 37
27 18 0 24 -5 21 -17z m39 1 c5 -15 7 -15 15 0 13 24 31 20 18 -4 -6 -11 -17
-20 -25 -20 -8 0 -19 9 -25 20 -8 14 -8 20 0 20 6 0 13 -7 17 -16z m73 -9 c0
-8 -4 -17 -10 -20 -6 -4 -10 5 -10 20 0 15 4 24 10 20 6 -3 10 -12 10 -20z
m67 5 c1 -11 -2 -20 -7 -20 -5 0 -15 -3 -24 -6 -12 -5 -16 0 -16 20 0 20 5 26
23 26 16 0 23 -6 24 -20z m11 -121 c-13 -23 -34 -49 -48 -58 -21 -13 -19 -10
8 19 17 19 38 49 44 68 7 18 14 29 16 23 2 -6 -7 -30 -20 -52z m86 -3 c-13
-43 -44 -63 -41 -26 1 11 5 20 9 20 4 0 8 9 8 20 0 13 5 18 15 14 11 -4 13
-13 9 -28z m-174 -86 c-8 -5 -19 -10 -25 -10 -5 0 -3 5 5 10 8 5 20 10 25 10
6 0 3 -5 -5 -10z m110 -130 c0 -10 -59 -43 -100 -55 -36 -10 -15 9 41 39 52
27 59 29 59 16z"/>
</g>
</svg>
